<?xml version="1.0" encoding="UTF-8"?>
<!DOCTYPE svg PUBLIC "-//W3C//DTD SVG 1.1//EN" "http://www.w3.org/Graphics/SVG/1.1/DTD/svg11.dtd">
<svg xmlns="http://www.w3.org/2000/svg" version="1.1" width="512px" height="512px" style="shape-rendering:geometricPrecision; text-rendering:geometricPrecision; image-rendering:optimizeQuality; fill-rule:evenodd; clip-rule:evenodd" xmlns:xlink="http://www.w3.org/1999/xlink">
<g><path style="opacity:0.994" fill="#dd352e" d="M 239.5,-0.5 C 250.167,-0.5 260.833,-0.5 271.5,-0.5C 311.224,6.06717 341.724,26.4005 363,60.5C 385.273,103.002 384.94,145.336 362,187.5C 339.262,223.03 306.762,242.697 264.5,246.5C 258.5,246.5 252.5,246.5 246.5,246.5C 194.847,241.005 159.014,214.339 139,166.5C 121.48,109.047 135.647,61.214 181.5,23C 199.016,10.5532 218.35,2.71991 239.5,-0.5 Z"/></g>
<g><path style="opacity:1" fill="#f66262" d="M 204.5,61.5 C 227.206,60.3735 238.039,71.0402 237,93.5C 232.044,108.781 221.544,115.614 205.5,114C 186.17,106.203 180.67,92.7029 189,73.5C 193.02,67.9194 198.186,63.9194 204.5,61.5 Z"/></g>
<g><path style="opacity:0.98" fill="#555f7f" d="M 246.5,246.5 C 252.5,246.5 258.5,246.5 264.5,246.5C 264.667,333.167 264.5,419.834 264,506.5C 262.975,508.687 261.475,510.354 259.5,511.5C 256.833,511.5 254.167,511.5 251.5,511.5C 249.525,510.354 248.025,508.687 247,506.5C 246.5,419.834 246.333,333.167 246.5,246.5 Z"/></g>
</svg>
